<svg id="Layer_1" data-name="Layer 1" xmlns="http://www.w3.org/2000/svg" viewBox="0 0 393.75 495.69"><defs><style>.cls-1{fill:none;stroke:#27a876;stroke-miterlimit:10;stroke-width:16px;}</style></defs><ellipse class="cls-1" cx="45.46" cy="150.67" rx="35.12" ry="46.48"/><ellipse class="cls-1" cx="138.52" cy="57.71" rx="35.12" ry="46.48"/><ellipse class="cls-1" cx="255.59" cy="58.71" rx="35.12" ry="46.48"/><ellipse class="cls-1" cx="347.8" cy="150.67" rx="35.12" ry="46.48"/><path class="cls-1" d="M103.16,246c10.73-17.2.47-28.44,26.4-51,21.25-18.45,49.81-22.69,63.87-22.66,9.91,0,57.71,1.4,80.63,33.31,11.52,16,8.73,21.38,20.16,41.19,10.13,17.55,22.16,19.72,34.18,32.43,11.83,12.5,8.14,29.95,7.89,34.18-1.92,32.52-30.87,51.33-36.81,55.21a89.24,89.24,0,0,1-44.7,14c-25.73,1-41-12.39-57.26-11.83-19,.66-23.61,6.89-39.6,9.68-21.63,3.78-37.39.41-42.49-1.36-24-8.3-53.26-30.68-57-63.1-.48-4.15-2.85-19,5.26-33.31S90.15,266.88,103.16,246Z"/></svg>