<svg id="Layer_1" data-name="Layer 1" xmlns="http://www.w3.org/2000/svg" viewBox="0 0 393.75 494.91"><defs><style>.cls-1{fill:#27a876;stroke:#27a876;stroke-miterlimit:10;stroke-width:16px;}</style></defs><ellipse class="cls-1" cx="45.68" cy="149.11" rx="35.12" ry="46.48"/><ellipse class="cls-1" cx="138.75" cy="56.15" rx="35.12" ry="46.48"/><ellipse class="cls-1" cx="255.82" cy="57.15" rx="35.12" ry="46.48"/><ellipse class="cls-1" cx="348.03" cy="149.11" rx="35.12" ry="46.48"/><path class="cls-1" d="M103.38,244.47c10.73-17.2.47-28.45,26.4-51,21.26-18.46,49.81-22.69,63.87-22.66,9.91,0,57.71,1.4,80.64,33.3,11.52,16,8.73,21.38,20.15,41.19,10.13,17.55,22.16,19.73,34.19,32.43,11.83,12.5,8.13,30,7.88,34.18-1.92,32.52-30.87,51.34-36.81,55.22a89.22,89.22,0,0,1-44.69,14c-25.74,1-41-12.38-57.27-11.82-19,.65-23.61,6.88-39.59,9.68-21.63,3.77-37.4.4-42.5-1.37-24-8.3-53.25-30.68-57-63.1-.47-4.14-2.84-18.95,5.26-33.3S90.37,265.32,103.38,244.47Z"/></svg>